<svg version="1.1" viewBox="0.0 0.0 359.0997375328084 568.8005249343832" fill="none" stroke="none" stroke-linecap="square" stroke-miterlimit="10" xmlns:xlink="http://www.w3.org/1999/xlink" xmlns="http://www.w3.org/2000/svg"><clipPath id="p.0"><path d="m0 0l359.09973 0l0 568.80054l-359.09973 0l0 -568.80054z" clip-rule="nonzero"/></clipPath><g clip-path="url(#p.0)"><path fill="#000000" fill-opacity="0.0" d="m0 0l359.09973 0l0 568.80054l-359.09973 0z" fill-rule="evenodd"/><path fill="#ffffff" d="m1.2808399 60.280716l0 0c0 -32.818836 26.604923 -59.42376 59.42376 -59.42376l237.68791 0l0 0c15.760162 0 30.874817 6.2606997 42.01895 17.404818c11.144104 11.144117 17.404816 26.258781 17.404816 42.018944l0 448.23907c0 32.818817 -26.60495 59.423737 -59.423767 59.423737l-237.68791 0c-32.81884 0 -59.42376 -26.60492 -59.42376 -59.423737z" fill-rule="evenodd"/><path fill="#000000" fill-opacity="0.0" d="m25.380497 0.8575609l308.34647 0l0 281.4173l-308.34647 0z" fill-rule="evenodd"/><path fill="#cc0000" d="m182.93147 49.09935q26.796875 0 44.71875 16.015625q17.9375 16.0 17.9375 41.140625q0 17.609375 -8.421875 31.71875q-8.421875 14.09375 -35.34375 31.1875q-18.765625 11.875 -27.703125 19.65625q-8.921875 7.78125 -13.890625 14.921875l86.5 0l0 31.90625l-134.35938 0q0 -18.125 6.4375 -32.09375q6.453125 -13.96875 18.499992 -25.0q12.0625 -11.046875 46.015625 -33.625q13.015625 -8.5625 19.140625 -17.171875q6.125 -8.609375 6.125 -18.5625q0 -12.375 -7.46875 -20.28125q-7.46875 -7.921875 -19.96875 -7.921875q-13.78125 0 -21.25 11.234375q-7.46875 11.234375 -7.84375 30.75l-35.468742 0l0 -3.453125q0 -31.765625 18.046867 -51.09375q18.0625 -19.328125 48.296875 -19.328125z" fill-rule="nonzero"/><path fill="#cc0000" d="m86.08399 416.49344l93.46456 -118.70865l93.46457 118.70865l-93.46457 118.70865z" fill-rule="evenodd"/></g></svg>