<svg version="1.1" viewBox="0.0 0.0 359.0997375328084 568.8005249343832" fill="none" stroke="none" stroke-linecap="square" stroke-miterlimit="10" xmlns:xlink="http://www.w3.org/1999/xlink" xmlns="http://www.w3.org/2000/svg"><clipPath id="p.0"><path d="m0 0l359.09973 0l0 568.80054l-359.09973 0l0 -568.80054z" clip-rule="nonzero"/></clipPath><g clip-path="url(#p.0)"><path fill="#000000" fill-opacity="0.0" d="m0 0l359.09973 0l0 568.80054l-359.09973 0z" fill-rule="evenodd"/><path fill="#ffffff" d="m1.2808399 60.280716l0 0c0 -32.818836 26.604923 -59.42376 59.42376 -59.42376l237.68791 0l0 0c15.760162 0 30.874817 6.2606997 42.01895 17.404818c11.144104 11.144117 17.404816 26.258781 17.404816 42.018944l0 448.23907c0 32.818817 -26.60495 59.423737 -59.423767 59.423737l-237.68791 0c-32.81884 0 -59.42376 -26.60492 -59.42376 -59.423737z" fill-rule="evenodd"/><path fill="#000000" fill-opacity="0.0" d="m25.380497 0.8575609l308.34647 0l0 281.4173l-308.34647 0z" fill-rule="evenodd"/><path fill="#cc0000" d="m178.97835 49.09935q24.890625 0 43.1875 14.421875q18.3125 14.40625 18.3125 36.234375q0 13.265625 -6.515625 23.34375q-6.5 10.078125 -19.125 14.03125l0 0.515625q15.3125 3.578125 23.859375 14.9375q8.546875 11.34375 8.546875 26.65625q0 26.796875 -19.65625 43.453125q-19.640625 16.65625 -48.359375 16.65625q-30.875 0 -49.375 -17.484375q-18.499992 -17.484375 -18.499992 -47.078125l0 -2.171875l35.218742 0q0.890625 17.21875 9.3125 26.671875q8.421875 9.4375 22.84375 9.4375q13.265625 0 21.5625 -8.234375q8.296875 -8.234375 8.296875 -20.484375q0 -13.640625 -8.109375 -20.40625q-8.09375 -6.765625 -30.296875 -6.765625l-3.96875 0l0 -26.15625l6.265625 0.25q15.6875 0 24.171875 -6.0q8.484375 -6.0 8.484375 -16.96875q0 -10.96875 -7.34375 -17.671875q-7.328125 -6.703125 -18.5625 -6.703125q-12.5 0 -20.21875 8.234375q-7.71875 8.234375 -7.96875 24.4375l-35.218742 0q1.015625 -28.84375 18.234367 -46.0q17.234375 -17.15625 44.921875 -17.15625z" fill-rule="nonzero"/><path fill="#cc0000" d="m86.08399 416.49344l93.46456 -118.70865l93.46457 118.70865l-93.46457 118.70865z" fill-rule="evenodd"/></g></svg>