<svg version="1.1" viewBox="0.0 0.0 359.0997375328084 568.8005249343832" fill="none" stroke="none" stroke-linecap="square" stroke-miterlimit="10" xmlns:xlink="http://www.w3.org/1999/xlink" xmlns="http://www.w3.org/2000/svg"><clipPath id="p.0"><path d="m0 0l359.09973 0l0 568.80054l-359.09973 0l0 -568.80054z" clip-rule="nonzero"/></clipPath><g clip-path="url(#p.0)"><path fill="#000000" fill-opacity="0.0" d="m0 0l359.09973 0l0 568.80054l-359.09973 0z" fill-rule="evenodd"/><path fill="#ffffff" d="m1.2808399 60.280716l0 0c0 -32.818836 26.604923 -59.42376 59.42376 -59.42376l237.68791 0l0 0c15.760162 0 30.874817 6.2606997 42.01895 17.404818c11.144104 11.144117 17.404816 26.258781 17.404816 42.018944l0 448.23907c0 32.818817 -26.60495 59.423737 -59.423767 59.423737l-237.68791 0c-32.81884 0 -59.42376 -26.60492 -59.42376 -59.423737z" fill-rule="evenodd"/><path fill="#000000" d="m107.45932 550.6719l72.09448 -92.787384l72.0945 92.787384z" fill-rule="evenodd"/><path stroke="#000000" stroke-width="1.0" stroke-linejoin="round" stroke-linecap="butt" d="m107.45932 550.6719l72.09448 -92.787384l72.0945 92.787384z" fill-rule="evenodd"/><path fill="#000000" fill-opacity="0.0" d="m25.380497 0.8575609l308.34647 0l0 281.4173l-308.34647 0z" fill-rule="evenodd"/><path fill="#000000" d="m237.55647 52.66185l0 30.625l-75.546875 0l-7.28125 41.59375l0.515625 0.515625q6.890625 -6.890625 15.3125 -10.515625q8.421875 -3.640625 20.421875 -3.640625q25.515625 0 41.015625 17.484375q15.5 17.46875 15.5 44.78125q0 27.171875 -19.59375 46.515625q-19.578125 19.328125 -47.515625 19.328125q-29.609375 0 -48.8125 -15.4375q-19.203117 -15.4375 -19.968742 -42.625l37.140617 0q1.390625 12.5 9.625 19.96875q8.234375 7.46875 20.359375 7.46875q13.65625 0 22.640625 -10.328125q9.0 -10.34375 9.0 -24.890625q0 -15.1875 -8.75 -24.75q-8.734375 -9.578125 -23.015625 -9.578125q-9.828125 0 -16.21875 3.640625q-6.375 3.640625 -11.609375 11.03125l-33.421867 0l17.984367 -101.1875l102.21875 0z" fill-rule="nonzero"/><path fill="#000000" d="m179.5538 458.9685c53.07744 137.4278 260.0794 0 0 -176.6929c-260.0794 176.6929 -53.077423 314.1207 0 176.6929z" fill-rule="evenodd"/><path stroke="#000000" stroke-width="1.0" stroke-linejoin="round" stroke-linecap="butt" d="m179.5538 458.9685c53.07744 137.4278 260.0794 0 0 -176.6929c-260.0794 176.6929 -53.077423 314.1207 0 176.6929z" fill-rule="evenodd"/></g></svg>