<svg version="1.1" viewBox="0.0 0.0 359.0997375328084 568.8005249343832" fill="none" stroke="none" stroke-linecap="square" stroke-miterlimit="10" xmlns:xlink="http://www.w3.org/1999/xlink" xmlns="http://www.w3.org/2000/svg"><clipPath id="p.0"><path d="m0 0l359.09973 0l0 568.80054l-359.09973 0l0 -568.80054z" clip-rule="nonzero"/></clipPath><g clip-path="url(#p.0)"><path fill="#000000" fill-opacity="0.0" d="m0 0l359.09973 0l0 568.80054l-359.09973 0z" fill-rule="evenodd"/><path fill="#ffffff" d="m1.2808399 60.280716l0 0c0 -32.818836 26.604923 -59.42376 59.42376 -59.42376l237.68791 0l0 0c15.760162 0 30.874817 6.2606997 42.01895 17.404818c11.144104 11.144117 17.404816 26.258781 17.404816 42.018944l0 448.23907c0 32.818817 -26.60495 59.423737 -59.423767 59.423737l-237.68791 0c-32.81884 0 -59.42376 -26.60492 -59.42376 -59.423737z" fill-rule="evenodd"/><path fill="#000000" fill-opacity="0.0" d="m25.380497 0.8575609l308.34647 0l0 281.4173l-308.34647 0z" fill-rule="evenodd"/><path fill="#cc0000" d="m184.21272 49.09935q24.5 0 40.3125 13.53125q15.828125 13.515625 19.015625 37.125l-35.21875 0q-2.296875 -10.59375 -9.0625 -16.65625q-6.75 -6.0625 -15.5625 -6.0625q-15.046875 0 -24.3125 14.9375q-9.25 14.921875 -10.640625 40.703125l0.5 0.5q7.53125 -10.84375 17.546875 -15.625q10.015625 -4.78125 23.546875 -4.78125q15.0625 0 29.15625 8.234375q14.09375 8.21875 20.65625 22.203125q6.578125 13.96875 6.578125 29.140625q0 28.59375 -18.1875 47.796875q-18.171875 19.203125 -45.859375 19.203125q-34.453125 0 -52.390625 -24.6875q-17.921867 -24.703125 -17.921867 -69.875q0 -41.203125 19.015617 -68.4375q19.015625 -27.25 52.828125 -27.25zm-32.15625 125.6875q0 13.78125 8.21875 23.859375q8.234375 10.078125 21.390625 10.078125q11.984375 0 19.953125 -9.828125q7.984375 -9.828125 7.984375 -23.609375q0 -14.15625 -7.40625 -24.296875q-7.390625 -10.15625 -20.796875 -10.15625q-13.390625 0 -21.375 9.390625q-7.96875 9.375 -7.96875 24.5625z" fill-rule="nonzero"/><path fill="#cc0000" d="m86.08399 416.49344l93.46456 -118.70865l93.46457 118.70865l-93.46457 118.70865z" fill-rule="evenodd"/></g></svg>