<svg version="1.1" viewBox="0.0 0.0 359.0997375328084 568.8005249343832" fill="none" stroke="none" stroke-linecap="square" stroke-miterlimit="10" xmlns:xlink="http://www.w3.org/1999/xlink" xmlns="http://www.w3.org/2000/svg"><clipPath id="p.0"><path d="m0 0l359.09973 0l0 568.80054l-359.09973 0l0 -568.80054z" clip-rule="nonzero"/></clipPath><g clip-path="url(#p.0)"><path fill="#000000" fill-opacity="0.0" d="m0 0l359.09973 0l0 568.80054l-359.09973 0z" fill-rule="evenodd"/><path fill="#ffffff" d="m1.2808399 60.280716l0 0c0 -32.818836 26.604923 -59.42376 59.42376 -59.42376l237.68791 0l0 0c15.760162 0 30.874817 6.2606997 42.01895 17.404818c11.144104 11.144117 17.404816 26.258781 17.404816 42.018944l0 448.23907c0 32.818817 -26.60495 59.423737 -59.423767 59.423737l-237.68791 0c-32.81884 0 -59.42376 -26.60492 -59.42376 -59.423737z" fill-rule="evenodd"/><path fill="#000000" fill-opacity="0.0" d="m25.380497 0.8575609l308.34647 0l0 281.4173l-308.34647 0z" fill-rule="evenodd"/><path fill="#cc0000" d="m179.86897 49.09935q28.453125 0 44.78125 15.375q16.34375 15.375 16.34375 33.875q0 13.265625 -6.703125 23.421875q-6.6875 10.140625 -19.96875 14.859375l0 0.5q16.96875 4.09375 25.578125 15.96875q8.625 11.859375 8.625 28.703125q0 26.28125 -19.71875 41.921875q-19.71875 15.625 -48.8125 15.625q-30.109375 0 -49.765625 -15.3125q-19.640617 -15.3125 -19.640617 -41.984375q0 -17.359375 9.046875 -29.15625q9.062492 -11.796875 25.406242 -15.765625l0 -0.5q-13.015625 -3.828125 -19.968742 -13.78125q-6.953125 -9.953125 -6.953125 -23.859375q0 -22.328125 18.109367 -36.109375q18.125 -13.78125 43.640625 -13.78125zm-28.0625 53.328125q0 10.46875 7.78125 17.234375q7.78125 6.75 20.15625 6.75q12.375 0 19.90625 -6.5q7.53125 -6.515625 7.53125 -17.484375q0 -11.484375 -7.015625 -18.4375q-7.015625 -6.953125 -20.546875 -6.953125q-12.375 0 -20.09375 7.21875q-7.71875 7.203125 -7.71875 18.171875zm-4.21875 77.84375q0 13.265625 9.375 22.203125q9.390625 8.921875 23.03125 8.921875q13.53125 0 22.453125 -8.734375q8.9375 -8.734375 8.9375 -22.140625q0 -12.625 -9.0625 -20.984375q-9.046875 -8.359375 -22.578125 -8.359375q-13.390625 0 -22.78125 7.71875q-9.375 7.71875 -9.375 21.375z" fill-rule="nonzero"/><path fill="#cc0000" d="m86.08399 416.49344l93.46456 -118.70865l93.46457 118.70865l-93.46457 118.70865z" fill-rule="evenodd"/></g></svg>