<svg version="1.1" viewBox="0.0 0.0 359.0997375328084 568.8005249343832" fill="none" stroke="none" stroke-linecap="square" stroke-miterlimit="10" xmlns:xlink="http://www.w3.org/1999/xlink" xmlns="http://www.w3.org/2000/svg"><clipPath id="p.0"><path d="m0 0l359.09973 0l0 568.80054l-359.09973 0l0 -568.80054z" clip-rule="nonzero"/></clipPath><g clip-path="url(#p.0)"><path fill="#000000" fill-opacity="0.0" d="m0 0l359.09973 0l0 568.80054l-359.09973 0z" fill-rule="evenodd"/><path fill="#ffffff" d="m1.2808399 60.280716l0 0c0 -32.818836 26.604923 -59.42376 59.42376 -59.42376l237.68791 0l0 0c15.760162 0 30.874817 6.2606997 42.01895 17.404818c11.144104 11.144117 17.404816 26.258781 17.404816 42.018944l0 448.23907c0 32.818817 -26.60495 59.423737 -59.423767 59.423737l-237.68791 0c-32.81884 0 -59.42376 -26.60492 -59.42376 -59.423737z" fill-rule="evenodd"/><path fill="#000000" d="m110.859764 351.7701l0 0c0 -37.20749 30.162605 -67.37009 67.37008 -67.37009l0 0c17.86766 0 35.003494 7.0979004 47.637833 19.732239c12.634338 12.634338 19.732239 29.770172 19.732239 47.637848l0 0c0 37.20746 -30.162613 67.370056 -67.37007 67.370056l0 0c-37.207474 0 -67.37008 -30.162598 -67.37008 -67.370056z" fill-rule="evenodd"/><path stroke="#000000" stroke-width="1.0" stroke-linejoin="round" stroke-linecap="butt" d="m110.859764 351.7701l0 0c0 -37.20749 30.162605 -67.37009 67.37008 -67.37009l0 0c17.86766 0 35.003494 7.0979004 47.637833 19.732239c12.634338 12.634338 19.732239 29.770172 19.732239 47.637848l0 0c0 37.20746 -30.162613 67.370056 -67.37007 67.370056l0 0c-37.207474 0 -67.37008 -30.162598 -67.37008 -67.370056z" fill-rule="evenodd"/><path fill="#000000" d="m48.919895 437.21725l0 0c0 -37.20746 30.16261 -67.37009 67.37007 -67.37009l0 0c17.867653 0 35.0035 7.0979004 47.63784 19.732239c12.634338 12.634338 19.732239 29.770203 19.732239 47.637848l0 0c0 37.20746 -30.162613 67.37009 -67.37008 67.37009l0 0c-37.207466 0 -67.37007 -30.162628 -67.37007 -67.37009z" fill-rule="evenodd"/><path stroke="#000000" stroke-width="1.0" stroke-linejoin="round" stroke-linecap="butt" d="m48.919895 437.21725l0 0c0 -37.20746 30.16261 -67.37009 67.37007 -67.37009l0 0c17.867653 0 35.0035 7.0979004 47.63784 19.732239c12.634338 12.634338 19.732239 29.770203 19.732239 47.637848l0 0c0 37.20746 -30.162613 67.37009 -67.37008 67.37009l0 0c-37.207466 0 -67.37007 -30.162628 -67.37007 -67.37009z" fill-rule="evenodd"/><path fill="#000000" d="m175.43709 437.21725l0 0c0 -37.20746 30.162613 -67.37009 67.37009 -67.37009l0 0c17.86766 0 35.003494 7.0979004 47.637833 19.732239c12.634338 12.634338 19.732239 29.770203 19.732239 47.637848l0 0c0 37.20746 -30.162598 67.37009 -67.37007 67.37009l0 0c-37.207474 0 -67.37009 -30.162628 -67.37009 -67.37009z" fill-rule="evenodd"/><path stroke="#000000" stroke-width="1.0" stroke-linejoin="round" stroke-linecap="butt" d="m175.43709 437.21725l0 0c0 -37.20746 30.162613 -67.37009 67.37009 -67.37009l0 0c17.86766 0 35.003494 7.0979004 47.637833 19.732239c12.634338 12.634338 19.732239 29.770203 19.732239 47.637848l0 0c0 37.20746 -30.162598 67.37009 -67.37007 67.37009l0 0c-37.207474 0 -67.37009 -30.162628 -67.37009 -67.37009z" fill-rule="evenodd"/><path fill="#000000" d="m106.12205 550.6564l72.09449 -96.031525l72.09448 96.031525z" fill-rule="evenodd"/><path stroke="#000000" stroke-width="1.0" stroke-linejoin="round" stroke-linecap="butt" d="m106.12205 550.6564l72.09449 -96.031525l72.09448 96.031525z" fill-rule="evenodd"/><path fill="#000000" fill-opacity="0.0" d="m25.380497 0.8575609l308.34647 0l0 281.4173l-308.34647 0z" fill-rule="evenodd"/><path fill="#000000" d="m176.55647 49.09935q34.453125 0 52.3125 24.6875q17.859375 24.6875 17.859375 69.734375q0 41.34375 -19.140625 68.59375q-19.125 27.234375 -52.8125 27.234375q-23.875 0 -39.953125 -13.390625q-16.078117 -13.40625 -19.265617 -37.390625l35.218742 0q2.171875 10.328125 8.9375 16.578125q6.765625 6.25 15.6875 6.25q14.8125 0 23.859375 -14.09375q9.0625 -14.09375 11.109375 -41.65625l-0.515625 -0.515625q-7.390625 10.46875 -17.40625 15.453125q-10.015625 4.96875 -23.796875 4.96875q-15.0625 0 -29.109375 -8.234375q-14.031242 -8.234375 -20.609367 -21.953125q-6.5625 -13.71875 -6.5625 -29.53125q0 -28.453125 17.984367 -47.59375q18.0 -19.140625 46.203125 -19.140625zm-27.046875 63.921875q0 14.921875 7.515625 24.75q7.53125 9.828125 20.421875 9.828125q13.265625 0 21.375 -9.3125q8.109375 -9.3125 8.109375 -24.625q0 -14.421875 -8.296875 -24.25q-8.296875 -9.828125 -21.3125 -9.828125q-11.875 0 -19.84375 9.703125q-7.96875 9.703125 -7.96875 23.734375z" fill-rule="nonzero"/></g></svg>