<svg version="1.1" viewBox="0.0 0.0 359.0997375328084 568.8005249343832" fill="none" stroke="none" stroke-linecap="square" stroke-miterlimit="10" xmlns:xlink="http://www.w3.org/1999/xlink" xmlns="http://www.w3.org/2000/svg"><clipPath id="p.0"><path d="m0 0l359.09973 0l0 568.80054l-359.09973 0l0 -568.80054z" clip-rule="nonzero"/></clipPath><g clip-path="url(#p.0)"><path fill="#000000" fill-opacity="0.0" d="m0 0l359.09973 0l0 568.80054l-359.09973 0z" fill-rule="evenodd"/><path fill="#ffffff" d="m1.2808399 60.280716l0 0c0 -32.818836 26.604923 -59.42376 59.42376 -59.42376l237.68791 0l0 0c15.760162 0 30.874817 6.2606997 42.01895 17.404818c11.144104 11.144117 17.404816 26.258781 17.404816 42.018944l0 448.23907c0 32.818817 -26.60495 59.423737 -59.423767 59.423737l-237.68791 0c-32.81884 0 -59.42376 -26.60492 -59.42376 -59.423737z" fill-rule="evenodd"/><path fill="#000000" d="m107.45932 550.6719l72.09448 -92.787384l72.0945 92.787384z" fill-rule="evenodd"/><path stroke="#000000" stroke-width="1.0" stroke-linejoin="round" stroke-linecap="butt" d="m107.45932 550.6719l72.09448 -92.787384l72.0945 92.787384z" fill-rule="evenodd"/><path fill="#000000" fill-opacity="0.0" d="m25.380497 0.8575609l308.34647 0l0 281.4173l-308.34647 0z" fill-rule="evenodd"/><path fill="#000000" d="m201.05681 49.09935l69.79689 186.42188l-42.625015 0l-14.03125 -41.46875l-69.796875 0l-14.671875 41.59375l-41.468742 0l70.81249 -186.54688l41.984375 0zm-21.6875 45.9375l-24.25 68.515625l48.359375 0l-23.484375 -68.515625l-0.625 0z" fill-rule="nonzero"/><path fill="#000000" d="m179.5538 458.9685c53.07744 137.4278 260.0794 0 0 -176.6929c-260.0794 176.6929 -53.077423 314.1207 0 176.6929z" fill-rule="evenodd"/><path stroke="#000000" stroke-width="1.0" stroke-linejoin="round" stroke-linecap="butt" d="m179.5538 458.9685c53.07744 137.4278 260.0794 0 0 -176.6929c-260.0794 176.6929 -53.077423 314.1207 0 176.6929z" fill-rule="evenodd"/></g></svg>