<svg version="1.1" viewBox="0.0 0.0 359.0997375328084 568.8005249343832" fill="none" stroke="none" stroke-linecap="square" stroke-miterlimit="10" xmlns:xlink="http://www.w3.org/1999/xlink" xmlns="http://www.w3.org/2000/svg"><clipPath id="p.0"><path d="m0 0l359.09973 0l0 568.80054l-359.09973 0l0 -568.80054z" clip-rule="nonzero"/></clipPath><g clip-path="url(#p.0)"><path fill="#000000" fill-opacity="0.0" d="m0 0l359.09973 0l0 568.80054l-359.09973 0z" fill-rule="evenodd"/><path fill="#ffffff" d="m1.2808399 60.280716l0 0c0 -32.818836 26.604923 -59.42376 59.42376 -59.42376l237.68791 0l0 0c15.760162 0 30.874817 6.2606997 42.01895 17.404818c11.144104 11.144117 17.404816 26.258781 17.404816 42.018944l0 448.23907c0 32.818817 -26.60495 59.423737 -59.423767 59.423737l-237.68791 0c-32.81884 0 -59.42376 -26.60492 -59.42376 -59.423737z" fill-rule="evenodd"/><path fill="#000000" fill-opacity="0.0" d="m25.380497 0.8575609l308.34647 0l0 281.4173l-308.34647 0z" fill-rule="evenodd"/><path fill="#cc0000" d="m234.10335 49.09935l0 129.0q0 29.984375 -15.640625 46.0q-15.625 16.015625 -46.375 16.015625q-27.171875 0 -44.343742 -15.375q-17.15625 -15.375 -17.15625 -41.40625l0 -17.234375l36.999992 0l0 7.015625q0 18.640625 6.0 25.53125q6.0 6.890625 17.859375 6.890625q10.71875 0 16.203125 -5.796875q5.5 -5.8125 5.5 -23.171875l0 -127.46875l40.953125 0z" fill-rule="nonzero"/><path fill="#cc0000" d="m179.5433 354.90814c55.098434 -140.23885 269.9823 0 0 180.30707c-269.9823 -180.30707 -55.09842 -320.5459 0 -180.30707z" fill-rule="evenodd"/></g></svg>