<svg version="1.1" viewBox="0.0 0.0 359.0997375328084 568.8005249343832" fill="none" stroke="none" stroke-linecap="square" stroke-miterlimit="10" xmlns:xlink="http://www.w3.org/1999/xlink" xmlns="http://www.w3.org/2000/svg"><clipPath id="p.0"><path d="m0 0l359.09973 0l0 568.80054l-359.09973 0l0 -568.80054z" clip-rule="nonzero"/></clipPath><g clip-path="url(#p.0)"><path fill="#000000" fill-opacity="0.0" d="m0 0l359.09973 0l0 568.80054l-359.09973 0z" fill-rule="evenodd"/><path fill="#ffffff" d="m1.2808399 60.280716l0 0c0 -32.818836 26.604923 -59.42376 59.42376 -59.42376l237.68791 0l0 0c15.760162 0 30.874817 6.2606997 42.01895 17.404818c11.144104 11.144117 17.404816 26.258781 17.404816 42.018944l0 448.23907c0 32.818817 -26.60495 59.423737 -59.423767 59.423737l-237.68791 0c-32.81884 0 -59.42376 -26.60492 -59.42376 -59.423737z" fill-rule="evenodd"/><path fill="#000000" d="m110.859764 351.7701l0 0c0 -37.20749 30.162605 -67.37009 67.37008 -67.37009l0 0c17.86766 0 35.003494 7.0979004 47.637833 19.732239c12.634338 12.634338 19.732239 29.770172 19.732239 47.637848l0 0c0 37.20746 -30.162613 67.370056 -67.37007 67.370056l0 0c-37.207474 0 -67.37008 -30.162598 -67.37008 -67.370056z" fill-rule="evenodd"/><path stroke="#000000" stroke-width="1.0" stroke-linejoin="round" stroke-linecap="butt" d="m110.859764 351.7701l0 0c0 -37.20749 30.162605 -67.37009 67.37008 -67.37009l0 0c17.86766 0 35.003494 7.0979004 47.637833 19.732239c12.634338 12.634338 19.732239 29.770172 19.732239 47.637848l0 0c0 37.20746 -30.162613 67.370056 -67.37007 67.370056l0 0c-37.207474 0 -67.37008 -30.162598 -67.37008 -67.370056z" fill-rule="evenodd"/><path fill="#000000" d="m48.919895 437.21725l0 0c0 -37.20746 30.16261 -67.37009 67.37007 -67.37009l0 0c17.867653 0 35.0035 7.0979004 47.63784 19.732239c12.634338 12.634338 19.732239 29.770203 19.732239 47.637848l0 0c0 37.20746 -30.162613 67.37009 -67.37008 67.37009l0 0c-37.207466 0 -67.37007 -30.162628 -67.37007 -67.37009z" fill-rule="evenodd"/><path stroke="#000000" stroke-width="1.0" stroke-linejoin="round" stroke-linecap="butt" d="m48.919895 437.21725l0 0c0 -37.20746 30.16261 -67.37009 67.37007 -67.37009l0 0c17.867653 0 35.0035 7.0979004 47.63784 19.732239c12.634338 12.634338 19.732239 29.770203 19.732239 47.637848l0 0c0 37.20746 -30.162613 67.37009 -67.37008 67.37009l0 0c-37.207466 0 -67.37007 -30.162628 -67.37007 -67.37009z" fill-rule="evenodd"/><path fill="#000000" d="m175.43709 437.21725l0 0c0 -37.20746 30.162613 -67.37009 67.37009 -67.37009l0 0c17.86766 0 35.003494 7.0979004 47.637833 19.732239c12.634338 12.634338 19.732239 29.770203 19.732239 47.637848l0 0c0 37.20746 -30.162598 67.37009 -67.37007 67.37009l0 0c-37.207474 0 -67.37009 -30.162628 -67.37009 -67.37009z" fill-rule="evenodd"/><path stroke="#000000" stroke-width="1.0" stroke-linejoin="round" stroke-linecap="butt" d="m175.43709 437.21725l0 0c0 -37.20746 30.162613 -67.37009 67.37009 -67.37009l0 0c17.86766 0 35.003494 7.0979004 47.637833 19.732239c12.634338 12.634338 19.732239 29.770203 19.732239 47.637848l0 0c0 37.20746 -30.162598 67.37009 -67.37007 67.37009l0 0c-37.207474 0 -67.37009 -30.162628 -67.37009 -67.37009z" fill-rule="evenodd"/><path fill="#000000" d="m106.12205 550.6564l72.09449 -96.031525l72.09448 96.031525z" fill-rule="evenodd"/><path stroke="#000000" stroke-width="1.0" stroke-linejoin="round" stroke-linecap="butt" d="m106.12205 550.6564l72.09449 -96.031525l72.09448 96.031525z" fill-rule="evenodd"/><path fill="#000000" fill-opacity="0.0" d="m25.380497 0.8575609l308.34647 0l0 281.4173l-308.34647 0z" fill-rule="evenodd"/><path fill="#000000" d="m144.27045 49.09935l0 77.3125l72.859375 -77.3125l51.296875 0l-72.984375 73.625l80.0 112.921875l-51.546875 0l-56.140625 -83.828125l-23.484375 23.734375l0 60.09375l-41.093742 0l0 -186.54688l41.093742 0z" fill-rule="nonzero"/></g></svg>