<svg version="1.1" viewBox="0.0 0.0 359.0997375328084 568.8005249343832" fill="none" stroke="none" stroke-linecap="square" stroke-miterlimit="10" xmlns:xlink="http://www.w3.org/1999/xlink" xmlns="http://www.w3.org/2000/svg"><clipPath id="p.0"><path d="m0 0l359.09973 0l0 568.80054l-359.09973 0l0 -568.80054z" clip-rule="nonzero"/></clipPath><g clip-path="url(#p.0)"><path fill="#000000" fill-opacity="0.0" d="m0 0l359.09973 0l0 568.80054l-359.09973 0z" fill-rule="evenodd"/><path fill="#ffffff" d="m1.2808399 60.280716l0 0c0 -32.818836 26.604923 -59.42376 59.42376 -59.42376l237.68791 0l0 0c15.760162 0 30.874817 6.2606997 42.01895 17.404818c11.144104 11.144117 17.404816 26.258781 17.404816 42.018944l0 448.23907c0 32.818817 -26.60495 59.423737 -59.423767 59.423737l-237.68791 0c-32.81884 0 -59.42376 -26.60492 -59.42376 -59.423737z" fill-rule="evenodd"/><path fill="#000000" d="m110.859764 351.7701l0 0c0 -37.20749 30.162605 -67.37009 67.37008 -67.37009l0 0c17.86766 0 35.003494 7.0979004 47.637833 19.732239c12.634338 12.634338 19.732239 29.770172 19.732239 47.637848l0 0c0 37.20746 -30.162613 67.370056 -67.37007 67.370056l0 0c-37.207474 0 -67.37008 -30.162598 -67.37008 -67.370056z" fill-rule="evenodd"/><path stroke="#000000" stroke-width="1.0" stroke-linejoin="round" stroke-linecap="butt" d="m110.859764 351.7701l0 0c0 -37.20749 30.162605 -67.37009 67.37008 -67.37009l0 0c17.86766 0 35.003494 7.0979004 47.637833 19.732239c12.634338 12.634338 19.732239 29.770172 19.732239 47.637848l0 0c0 37.20746 -30.162613 67.370056 -67.37007 67.370056l0 0c-37.207474 0 -67.37008 -30.162598 -67.37008 -67.370056z" fill-rule="evenodd"/><path fill="#000000" d="m48.919895 437.21725l0 0c0 -37.20746 30.16261 -67.37009 67.37007 -67.37009l0 0c17.867653 0 35.0035 7.0979004 47.63784 19.732239c12.634338 12.634338 19.732239 29.770203 19.732239 47.637848l0 0c0 37.20746 -30.162613 67.37009 -67.37008 67.37009l0 0c-37.207466 0 -67.37007 -30.162628 -67.37007 -67.37009z" fill-rule="evenodd"/><path stroke="#000000" stroke-width="1.0" stroke-linejoin="round" stroke-linecap="butt" d="m48.919895 437.21725l0 0c0 -37.20746 30.16261 -67.37009 67.37007 -67.37009l0 0c17.867653 0 35.0035 7.0979004 47.63784 19.732239c12.634338 12.634338 19.732239 29.770203 19.732239 47.637848l0 0c0 37.20746 -30.162613 67.37009 -67.37008 67.37009l0 0c-37.207466 0 -67.37007 -30.162628 -67.37007 -67.37009z" fill-rule="evenodd"/><path fill="#000000" d="m175.43709 437.21725l0 0c0 -37.20746 30.162613 -67.37009 67.37009 -67.37009l0 0c17.86766 0 35.003494 7.0979004 47.637833 19.732239c12.634338 12.634338 19.732239 29.770203 19.732239 47.637848l0 0c0 37.20746 -30.162598 67.37009 -67.37007 67.37009l0 0c-37.207474 0 -67.37009 -30.162628 -67.37009 -67.37009z" fill-rule="evenodd"/><path stroke="#000000" stroke-width="1.0" stroke-linejoin="round" stroke-linecap="butt" d="m175.43709 437.21725l0 0c0 -37.20746 30.162613 -67.37009 67.37009 -67.37009l0 0c17.86766 0 35.003494 7.0979004 47.637833 19.732239c12.634338 12.634338 19.732239 29.770203 19.732239 47.637848l0 0c0 37.20746 -30.162598 67.37009 -67.37007 67.37009l0 0c-37.207474 0 -67.37009 -30.162628 -67.37009 -67.37009z" fill-rule="evenodd"/><path fill="#000000" d="m106.12205 550.6564l72.09449 -96.031525l72.09448 96.031525z" fill-rule="evenodd"/><path stroke="#000000" stroke-width="1.0" stroke-linejoin="round" stroke-linecap="butt" d="m106.12205 550.6564l72.09449 -96.031525l72.09448 96.031525z" fill-rule="evenodd"/><path fill="#000000" fill-opacity="0.0" d="m25.380497 0.8575609l308.34647 0l0 281.4173l-308.34647 0z" fill-rule="evenodd"/><path fill="#000000" d="m179.62216 44.6306q41.59375 0 66.65625 27.8125q25.078125 27.8125 25.078125 70.6875q0 20.03125 -6.125 37.453125q-6.125 17.421875 -18.234375 31.328125l23.21875 21.1875l-19.015625 20.03125l-26.40625 -23.984375q-9.0625 5.21875 -20.359375 8.09375q-11.296875 2.875 -24.8125 2.875q-42.109375 0 -66.9375 -28.0q-24.8125 -28.015625 -24.8125 -68.984375q0 -43.125 25.203125 -70.8125q25.203125 -27.6875 66.546875 -27.6875zm-50.796875 98.5q0 27.3125 13.203125 45.3125q13.21875 17.984375 42.3125 17.21875q4.46875 0 7.53125 -0.703125q3.0625 -0.703125 4.203125 -1.984375l-17.609375 -15.9375l19.140625 -20.421875l21.1875 19.390625q5.859375 -7.90625 8.671875 -18.875q2.8125 -10.984375 2.8125 -24.0q0 -29.59375 -13.40625 -46.8125q-13.390625 -17.234375 -37.515625 -17.234375q-23.859375 0 -37.203125 17.484375q-13.328125 17.46875 -13.328125 46.5625z" fill-rule="nonzero"/></g></svg>