<svg version="1.1" viewBox="0.0 0.0 359.0997375328084 568.8005249343832" fill="none" stroke="none" stroke-linecap="square" stroke-miterlimit="10" xmlns:xlink="http://www.w3.org/1999/xlink" xmlns="http://www.w3.org/2000/svg"><clipPath id="p.0"><path d="m0 0l359.09973 0l0 568.80054l-359.09973 0l0 -568.80054z" clip-rule="nonzero"/></clipPath><g clip-path="url(#p.0)"><path fill="#000000" fill-opacity="0.0" d="m0 0l359.09973 0l0 568.80054l-359.09973 0z" fill-rule="evenodd"/><path fill="#ffffff" d="m1.2808399 60.280716l0 0c0 -32.818836 26.604923 -59.42376 59.42376 -59.42376l237.68791 0l0 0c15.760162 0 30.874817 6.2606997 42.01895 17.404818c11.144104 11.144117 17.404816 26.258781 17.404816 42.018944l0 448.23907c0 32.818817 -26.60495 59.423737 -59.423767 59.423737l-237.68791 0c-32.81884 0 -59.42376 -26.60492 -59.42376 -59.423737z" fill-rule="evenodd"/><path fill="#000000" fill-opacity="0.0" d="m25.380497 0.8575609l308.34647 0l0 281.4173l-308.34647 0z" fill-rule="evenodd"/><path fill="#cc0000" d="m179.62216 44.6306q41.59375 0 66.65625 27.8125q25.078125 27.8125 25.078125 70.6875q0 20.03125 -6.125 37.453125q-6.125 17.421875 -18.234375 31.328125l23.21875 21.1875l-19.015625 20.03125l-26.40625 -23.984375q-9.0625 5.21875 -20.359375 8.09375q-11.296875 2.875 -24.8125 2.875q-42.109375 0 -66.9375 -28.0q-24.8125 -28.015625 -24.8125 -68.984375q0 -43.125 25.203125 -70.8125q25.203125 -27.6875 66.546875 -27.6875zm-50.796875 98.5q0 27.3125 13.203125 45.3125q13.21875 17.984375 42.3125 17.21875q4.46875 0 7.53125 -0.703125q3.0625 -0.703125 4.203125 -1.984375l-17.609375 -15.9375l19.140625 -20.421875l21.1875 19.390625q5.859375 -7.90625 8.671875 -18.875q2.8125 -10.984375 2.8125 -24.0q0 -29.59375 -13.40625 -46.8125q-13.390625 -17.234375 -37.515625 -17.234375q-23.859375 0 -37.203125 17.484375q-13.328125 17.46875 -13.328125 46.5625z" fill-rule="nonzero"/><path fill="#cc0000" d="m179.5433 354.90814c55.098434 -140.23885 269.9823 0 0 180.30707c-269.9823 -180.30707 -55.09842 -320.5459 0 -180.30707z" fill-rule="evenodd"/></g></svg>